<svg xmlns="http://www.w3.org/2000/svg" viewBox="0 0 1024 1024">
  <g transform="translate(142 128)">
    <path d="M72 308 370 72l298 236" fill="none" stroke="#fff" stroke-width="82" stroke-linecap="round" stroke-linejoin="round"/>
    <path d="M668 308v342c0 55-45 100-100 100H172c-55 0-100-45-100-100V308" fill="#fff"/>
    <path d="M72 474c83-77 165-72 242-5l73 64-101 101-67-59-95 88H72Z" fill="#172433"/>
    <path d="m668 474-170-94-178 153 100 94 88-76 83 70 77-72Z" fill="#ff7600"/>
    <g fill="#172433"><rect x="318" y="250" width="52" height="52" rx="7"/><rect x="382" y="250" width="52" height="52" rx="7"/><rect x="318" y="314" width="52" height="52" rx="7"/><rect x="382" y="314" width="52" height="52" rx="7"/></g>
  </g>
</svg>
